<svg id="Icons" height="512" viewBox="0 0 74 74" width="512" xmlns="http://www.w3.org/2000/svg"><path d="m56.161 66.09a1 1 0 0 1 -.567-1.824c.8-.547 1.558-1.117 2.265-1.692a1 1 0 0 1 1.262 1.552c-.749.609-1.555 1.21-2.394 1.788a1 1 0 0 1 -.566.176z"/><path d="m37 72a34.972 34.972 0 1 1 32.642-22.348 1 1 0 1 1 -1.864-.724 32.97 32.97 0 1 0 -18.335 18.646 1 1 0 1 1 .753 1.852 34.865 34.865 0 0 1 -13.196 2.574z"/><path d="m63.439 59.38a1 1 0 0 1 -.781-1.624c.682-.855 1.259-1.633 1.764-2.378a1 1 0 0 1 1.656 1.122c-.535.788-1.142 1.606-1.856 2.5a1 1 0 0 1 -.783.38z"/><path d="m37 59.461a20.988 20.988 0 0 1 -15.5-35.154 1 1 0 0 1 1.476 1.349 19 19 0 1 0 28.044 0 1 1 0 0 1 1.48-1.349 20.988 20.988 0 0 1 -15.5 35.154z"/><path d="m37 38a1 1 0 0 1 -1-1v-21.461a1 1 0 0 1 2 0v21.461a1 1 0 0 1 -1 1z"/></svg>